<svg width="13" height="13" viewBox="0 0 13 13" fill="none" xmlns="http://www.w3.org/2000/svg">
<path d="M12.1082 0.274725C11.9655 0.132198 11.7722 0.0521376 11.5706 0.0521376C11.369 0.0521376 11.1756 0.132198 11.0329 0.274725L6.19139 5.11967L1.34988 0.274725C1.28195 0.193206 1.19779 0.126742 1.10277 0.0795779C1.00774 0.0324139 0.903928 0.00556953 0.797966 0.000778287C0.692005 -0.00401295 0.586219 0.0133585 0.487332 0.0517544C0.388445 0.0901504 0.298629 0.148729 0.223626 0.223785C0.148624 0.298841 0.0900684 0.388721 0.0516999 0.487679C0.0133314 0.586637 -0.00400949 0.692516 0.000778329 0.798553C0.00556615 0.90459 0.0323914 1.00846 0.0795217 1.10355C0.126652 1.19864 0.19305 1.28286 0.274511 1.35084L5.11602 6.1958L0.274511 11.0408C0.16814 11.1478 0.0957244 11.2839 0.0663401 11.4319C0.0369557 11.58 0.0519215 11.7334 0.109349 11.873C0.166777 12.0126 0.264115 12.1321 0.389153 12.2166C0.514191 12.301 0.661364 12.3466 0.812205 12.3477C0.912403 12.3481 1.01164 12.3283 1.10402 12.2894C1.19641 12.2506 1.28003 12.1936 1.34988 12.1217L6.19139 7.2767L11.0329 12.1217C11.1755 12.2648 11.3686 12.346 11.5706 12.3477C11.6708 12.3486 11.7703 12.3291 11.8627 12.2902C11.9552 12.2514 12.0387 12.194 12.1082 12.1217C12.2507 11.9789 12.3307 11.7854 12.3307 11.5836C12.3307 11.3819 12.2507 11.1883 12.1082 11.0455L7.27868 6.20058L12.1202 1.35562C12.1906 1.28404 12.2463 1.19922 12.2838 1.10603C12.3214 1.01285 12.3401 0.913147 12.339 0.812675C12.3379 0.712202 12.317 0.612958 12.2774 0.520629C12.2377 0.4283 12.1803 0.344728 12.1082 0.274725Z" fill="#FB7134"/>
</svg>
